<?xml version="1.0" encoding="UTF-8" standalone="no"?>
<!-- Created with Inkscape (http://www.inkscape.org/) -->

<svg
   width="512"
   height="512"
   viewBox="0 0 135.46666 135.46667"
   version="1.1"
   id="svg5"
   inkscape:version="1.1.2 (b8e25be833, 2022-02-05)"
   sodipodi:docname="icon.svg"
   xmlns:inkscape="http://www.inkscape.org/namespaces/inkscape"
   xmlns:sodipodi="http://sodipodi.sourceforge.net/DTD/sodipodi-0.dtd"
   xmlns="http://www.w3.org/2000/svg"
   xmlns:svg="http://www.w3.org/2000/svg">
  <sodipodi:namedview
     id="namedview7"
     pagecolor="#ffffff"
     bordercolor="#666666"
     borderopacity="1.0"
     inkscape:pageshadow="2"
     inkscape:pageopacity="0.0"
     inkscape:pagecheckerboard="0"
     inkscape:document-units="px"
     showgrid="false"
     inkscape:zoom="0.64"
     inkscape:cx="271.09375"
     inkscape:cy="282.8125"
     inkscape:window-width="1304"
     inkscape:window-height="745"
     inkscape:window-x="-8"
     inkscape:window-y="-8"
     inkscape:window-maximized="1"
     inkscape:current-layer="g72066"
     units="px"
     width="16px"
     inkscape:snap-nodes="false"
     inkscape:snap-bbox="true"
     inkscape:bbox-paths="true"
     inkscape:bbox-nodes="true"
     inkscape:snap-bbox-edge-midpoints="true"
     inkscape:snap-bbox-midpoints="true"
     showguides="true"
     inkscape:guide-bbox="true" />
  <defs
     id="defs2" />
  <g
     inkscape:label="Layer 1"
     inkscape:groupmode="layer"
     id="layer1">
    <g
       id="g72066"
       transform="translate(319.61673,-93.133339)">
      <rect
         style="fill:#4d4d4d;fill-opacity:1;stroke:none;stroke-width:16;stroke-linecap:square;stroke-linejoin:round;stroke-miterlimit:4;stroke-dasharray:none"
         id="rect863"
         width="135.4668"
         height="135.46666"
         x="-319.61673"
         y="93.133339"
         ry="24.553354"
         rx="24.553354"
         inkscape:export-filename="D:\Gaga\Qt Projects\TOR-3_Control\resources\language_icon.png"
         inkscape:export-xdpi="384"
         inkscape:export-ydpi="384" />
      <path
         id="path49296-5-4"
         style="fill:#fffe00;fill-opacity:1;stroke-width:2.55855;stroke-linecap:round;stroke-linejoin:round"
         d="m -236.164,184.00669 h 25.24141 v 14.18088 H -236.164 Z"
         sodipodi:nodetypes="ccccc" />
      <path
         id="rect3299-3-7"
         style="fill:#fffe00;fill-opacity:1;stroke:none;stroke-width:2.52105;stroke-linecap:round;stroke-linejoin:round;stroke-miterlimit:4;stroke-dasharray:none;stroke-opacity:1"
         d="m -232.34198,120.31903 c 0,-2.45507 -1.97649,-4.43153 -4.43154,-4.43153 h -56.13274 c -2.45503,0 -4.43153,1.97646 -4.43153,4.43153 v 81.09528 c 0,2.45507 1.9765,4.43152 4.43153,4.43152 h 56.13274 c 2.45505,0 4.43154,-1.97645 4.43154,-4.43152 z"
         sodipodi:nodetypes="csssssscc" />
      <path
         id="rect27893-2-2"
         style="fill:#fffe00;stroke-width:2.52105;stroke-linecap:round;stroke-linejoin:round"
         d="m -221.34705,181.60493 h 16.63225 c 0.32735,0 0.59088,0.26353 0.59088,0.59086 v 17.80269 c 0,0.32733 -0.26353,0.59086 -0.59088,0.59086 h -16.63225 c -0.32734,0 -0.59087,-0.26353 -0.59087,-0.59086 v -17.80269 c 0,-0.32733 0.26353,-0.59086 0.59087,-0.59086 z"
         sodipodi:nodetypes="sssssssss" />
      <path
         id="circle1506-2-6"
         style="fill:#fffe00;fill-opacity:1;stroke:#4d4d4d;stroke-width:7.10632;stroke-linecap:round;stroke-linejoin:round;stroke-miterlimit:4;stroke-dasharray:none;stroke-opacity:1"
         d="m -212.35292,166.4543 c 7.15442,0 12.95423,-5.79979 12.95423,-12.9542 0,-7.15442 -5.79981,-12.95422 -12.95423,-12.95422 l -51.81687,-5.55181 c -10.22057,0 -18.50601,8.28544 -18.50601,18.50603 0,10.22058 8.28544,18.50602 18.50601,18.50602 z"
         sodipodi:nodetypes="csccscc" />
      <circle
         style="fill:#4d4d4d;fill-opacity:1;stroke-width:0.592786;stroke-linecap:round;stroke-linejoin:round"
         id="circle50130"
         cx="-264.1701"
         cy="153.50043"
         r="8.3277092" />
    </g>
  </g>
</svg>
